<?xml version="1.0" encoding="utf-8"?>
<!-- Generator: Adobe Illustrator 27.0.1, SVG Export Plug-In . SVG Version: 6.00 Build 0)  -->
<svg version="1.1" id="Layer_2_00000041259081293578688820000005410617502031949713_"
	 xmlns="http://www.w3.org/2000/svg" xmlns:xlink="http://www.w3.org/1999/xlink" x="0px" y="0px" viewBox="0 0 1000 536"
	 enable-background="new 0 0 1000 536" xml:space="preserve">
<g>
	<path d="M148.16,188.94v-63.03c0-42.68-33.16-77.26-74.1-77.26C33.16,48.65,0,83.23,0,125.91c0,29.41,14.18,54.98,36.41,68.06
		c1.56,0.91,3.16,1.78,4.8,2.52c8.87,4.35,18.89,6.72,29.64,6.72c18.43,0,30.92-8.87,41.21-18.66v4.39
		c0,21.91-17.02,39.66-38.01,39.66c-11.8,0-22.37-5.63-29.37-14.5H4.03c9.97,30.37,37.55,52.15,70.03,52.15
		C114.99,266.24,148.16,231.66,148.16,188.94z M74.06,165.61c-20.95,0-37.97-17.79-37.97-39.7c0-21.86,17.02-39.66,37.97-39.66
		c21,0,38.01,17.79,38.01,39.66C112.07,147.82,95.05,165.61,74.06,165.61z"/>
	<path d="M226.97,203.21c39.66,0,71.86-34.58,71.86-77.3c0-42.68-32.2-77.26-71.86-77.26s-71.86,34.58-71.86,77.26
		C155.11,168.63,187.31,203.21,226.97,203.21z M226.97,86.25c20.36,0,36.87,17.79,36.87,39.66c0,21.91-16.51,39.7-36.87,39.7
		s-36.87-17.79-36.87-39.7C190.1,104.04,206.61,86.25,226.97,86.25z"/>
	<path d="M576.16,203.21c32.2,0,59.56-21.68,69.57-51.92h-39.02c-6.91,10.75-18.02,17.75-30.56,17.75
		c-16.74,0-30.92-12.4-35.86-29.59h108.36c0.78-4.39,1.14-8.92,1.14-13.54c0-42.68-32.98-77.26-73.64-77.26
		c-40.66,0-73.64,34.58-73.64,77.26C502.52,168.63,535.5,203.21,576.16,203.21z M576.16,82.82c16.24,0,30.1,11.71,35.45,28.09h-70.9
		C546.06,94.53,559.88,82.82,576.16,82.82z"/>
	<path d="M424.62,203.21c40.34,0,73.05-34.58,73.05-77.3V0.21h-35.59v67.38c-9.88-11.02-22.28-18.94-38.74-18.94
		c-40.34,0-71.77,34.58-71.77,77.26C351.57,168.63,384.27,203.21,424.62,203.21z M424.62,86.25c20.68,0,37.46,17.79,37.46,39.66
		c0,21.91-16.79,39.7-37.46,39.7c-20.72,0-37.51-17.79-37.51-39.7C387.11,104.04,403.9,86.25,424.62,86.25z"/>
	<rect x="306.88" y="0.2" width="37.4" height="197.36"/>
	<path d="M692.48,113.88c0-15.46,12.49-27.99,27.95-27.99s27.99,12.53,27.99,27.99v83.71h37.69v-83.3
		c0-36.27-29.41-65.64-65.68-65.64c-36.23,0-65.64,29.37-65.64,65.64v83.3h37.69V113.88z"/>
	<path d="M226.97,208.06c-64.77,0-117.33,56.12-117.33,125.33V535.8h16.42V395.37c20.4,36.78,58,63.31,100.91,63.31
		c64.77,0,117.33-56.08,117.33-125.29S291.74,208.06,226.97,208.06z M226.97,438.73c-54.48,0-98.62-47.16-98.62-105.34
		s44.14-105.34,98.62-105.34s98.62,47.16,98.62,105.34S281.45,438.73,226.97,438.73z"/>
	<rect x="355.59" y="214.11" width="19.37" height="236.51"/>
	<polygon points="579.18,230.66 579.18,214.11 393.52,214.11 393.52,232.27 554.97,232.27 387.11,436.09 387.11,450.62 
		582.01,450.62 582.01,432.86 413.1,432.86 	"/>
	<polygon points="788.33,230.66 788.33,214.11 602.67,214.11 602.67,232.27 764.11,232.27 596.26,436.09 596.26,450.62 
		791.15,450.62 791.15,432.86 622.25,432.86 	"/>
	<path d="M882.67,208.06c-64.77,0-117.28,56.12-117.28,125.33s52.51,125.29,117.28,125.29c43.5,0,81.51-27.22,101.73-64.77v56.72
		h15.6V333.39C1000,264.18,947.49,208.06,882.67,208.06z M883.54,438.73c-54.94,0-99.49-47.16-99.49-105.34
		s44.55-105.34,99.49-105.34c54.98,0,99.49,47.16,99.49,105.34C983.03,391.57,938.52,438.73,883.54,438.73z"/>
</g>
</svg>
