<?xml version="1.0" encoding="utf-8"?>
<!-- Generator: Adobe Illustrator 27.0.1, SVG Export Plug-In . SVG Version: 6.00 Build 0)  -->
<svg version="1.1" id="Layer_1" xmlns="http://www.w3.org/2000/svg" xmlns:xlink="http://www.w3.org/1999/xlink" x="0px" y="0px"
	 viewBox="0 0 1000 922" enable-background="new 0 0 1000 922" xml:space="preserve">
<g>
	<path fill="#353535" d="M517.87,16.26l47.01-13.39c20.93-5.96,43.46-1.17,60.16,12.79l37.5,31.35c9.39,7.85,20.78,12.92,32.9,14.65
		l48.39,6.89c21.55,3.07,40.18,16.6,49.76,36.15l21.5,43.89c5.38,10.99,13.73,20.26,24.09,26.76l41.41,25.97
		c18.44,11.57,29.95,31.51,30.75,53.26l1.79,48.85c0.45,12.23,4.3,24.09,11.13,34.25l27.26,40.57
		c12.14,18.07,14.55,40.97,6.43,61.17l-18.23,45.35c-4.56,11.35-5.87,23.76-3.76,35.81l8.4,48.15c3.74,21.44-3.37,43.35-19.01,58.49
		l-35.1,34.01c-8.79,8.52-15.02,19.32-18,31.18l-11.91,47.41c-5.3,21.11-20.71,38.23-41.15,45.71l-45.9,16.8
		c-11.49,4.21-21.58,11.54-29.13,21.17l-30.16,38.46c-13.43,17.13-34.47,26.5-56.19,25.02l-48.77-3.33
		c-12.21-0.83-24.41,1.76-35.22,7.49L530.62,914c-19.24,10.19-42.27,10.19-61.5,0l-43.2-22.87c-10.81-5.73-23.01-8.32-35.22-7.49
		l-48.77,3.33c-21.72,1.48-42.76-7.89-56.19-25.02l-30.16-38.46c-7.55-9.63-17.64-16.96-29.13-21.17l-45.9-16.8
		c-20.44-7.48-35.85-24.59-41.15-45.71l-11.91-47.41c-2.98-11.87-9.22-22.67-18-31.18l-35.1-34.01
		c-15.63-15.15-22.75-37.05-19.01-58.49l8.4-48.15c2.1-12.05,0.8-24.46-3.76-35.81l-18.23-45.35c-8.12-20.19-5.71-43.1,6.43-61.17
		l27.26-40.57c6.83-10.16,10.68-22.02,11.13-34.25l1.79-48.85c0.8-21.75,12.31-41.7,30.75-53.26l41.41-25.97
		c10.37-6.5,18.71-15.77,24.09-26.76l21.5-43.89c9.58-19.55,28.21-33.08,49.76-36.15l48.39-6.89c12.11-1.72,23.51-6.8,32.9-14.65
		l37.5-31.35c16.7-13.96,39.23-18.75,60.16-12.79l47.01,13.39C493.63,19.62,506.1,19.62,517.87,16.26z"/>
	<path fill="#FFFFFF" d="M931.29,433.44c5.74-14.27,4.04-30.46-4.54-43.21l-32.33-48.13c-4.82-7.17-7.54-15.54-7.86-24.19
		l-2.12-57.93c-0.58-15.36-8.69-29.45-21.72-37.63l-49.12-30.78c-7.31-4.61-13.21-11.14-17.02-18.91l-25.5-52.07
		c-6.76-13.79-19.92-23.36-35.14-25.53l-57.4-8.16c-8.56-1.22-16.6-4.8-23.22-10.35l-44.48-37.17c-11.78-9.87-27.72-13.26-42.5-9.04
		l-55.74,15.89c-8.32,2.35-17.13,2.35-25.46,0L431.4,30.34c-14.78-4.22-30.72-0.83-42.5,9.04l-44.48,37.17
		c-6.62,5.56-14.67,9.13-23.22,10.35l-57.4,8.16c-15.22,2.17-28.39,11.74-35.14,25.53l-25.5,52.07c-3.8,7.77-9.71,14.3-17.02,18.91
		l-49.12,30.78c-13.03,8.19-21.15,22.28-21.72,37.63l-2.12,57.93c-0.32,8.65-3.04,17.02-7.86,24.19l-32.33,48.13
		c-8.58,12.75-10.28,28.94-4.54,43.21l21.63,53.78c3.23,8.02,4.15,16.79,2.65,25.3l-9.96,57.1c-2.65,15.15,2.38,30.62,13.42,41.32
		l41.62,40.35c6.23,6.02,10.63,13.63,12.73,22.02l14.11,56.22c3.76,14.92,14.64,27,29.08,32.28l54.44,19.92
		c8.12,2.97,15.24,8.14,20.57,14.97l35.77,45.61c9.5,12.08,24.35,18.7,39.69,17.66l57.83-3.94c8.62-0.58,17.25,1.25,24.88,5.28
		l51.24,27.14c13.58,7.19,29.86,7.19,43.44,0l51.24-27.14c7.63-4.04,16.26-5.86,24.88-5.28l57.83,3.94
		c15.33,1.04,30.18-5.58,39.69-17.66l35.77-45.61c5.33-6.83,12.45-11.99,20.57-14.97L806,761.81c14.44-5.28,25.32-17.36,29.08-32.28
		l14.11-56.22c2.1-8.39,6.5-16,12.73-22.02l41.62-40.35c11.05-10.7,16.07-26.17,13.42-41.32l-9.96-57.1
		c-1.5-8.51-0.58-17.27,2.65-25.3L931.29,433.44z M897.55,437.78l-17.27,42.94c-4.31,10.75-5.56,22.51-3.55,33.92l7.96,45.59
		c2.63,15.03-2.38,30.42-13.35,41.05l-33.23,32.19c-8.32,8.07-14.23,18.31-17.04,29.56l-11.28,44.87
		c-3.71,14.8-14.53,26.82-28.89,32.08l-43.44,15.89c-10.88,3.99-20.45,10.93-27.6,20.06l-28.55,36.41
		c-9.43,12.01-24.19,18.59-39.43,17.55l-46.17-3.14c-11.55-0.81-23.11,1.66-33.37,7.08l-40.88,21.65c-13.51,7.15-29.65,7.15-43.17,0
		l-40.88-21.65c-10.26-5.42-21.81-7.89-33.37-7.08l-46.17,3.14c-15.24,1.04-30-5.53-39.43-17.55l-28.55-36.41
		c-7.15-9.13-16.72-16.07-27.6-20.06l-43.44-15.89c-14.37-5.26-25.18-17.27-28.89-32.08l-11.28-44.87
		c-2.81-11.25-8.72-21.49-17.04-29.56l-33.23-32.19c-10.98-10.63-15.98-26.01-13.35-41.05l7.96-45.59
		c2.01-11.41,0.76-23.17-3.55-33.92l-17.27-42.94c-5.7-14.18-4.01-30.25,4.52-42.91l25.8-38.42c6.46-9.62,10.12-20.87,10.54-32.44
		l1.71-46.23c0.55-15.27,8.62-29.26,21.56-37.38l39.2-24.58c9.82-6.18,17.73-14.94,22.83-25.37l20.36-41.55
		c6.71-13.72,19.79-23.22,34.91-25.37l45.82-6.53c11.48-1.61,22.28-6.43,31.15-13.86l35.51-29.7c11.71-9.78,27.51-13.14,42.22-8.97
		l44.48,12.68c11.16,3.18,22.97,3.18,34.13,0l44.48-12.68c14.71-4.17,30.51-0.81,42.22,8.97l35.51,29.7
		c8.88,7.43,19.67,12.24,31.15,13.86l45.82,6.53c15.13,2.14,28.2,11.65,34.91,25.37l20.36,41.55c5.1,10.42,13.01,19.19,22.83,25.37
		l39.2,24.58c12.94,8.12,21.01,22.11,21.56,37.38l1.71,46.23c0.42,11.58,4.08,22.83,10.54,32.44l25.8,38.42
		C901.56,407.52,903.25,423.59,897.55,437.78z"/>
	<path fill="#00B0AD" d="M914.66,444.67c7.98-19.88,5.63-42.34-6.32-60.12l-25.8-38.39c-4.54-6.78-7.13-14.67-7.43-22.83
		l-1.68-46.23c-0.78-21.4-12.08-40.98-30.21-52.35l-39.2-24.58c-6.92-4.34-12.48-10.52-16.07-17.85l-20.34-41.55
		c-9.43-19.21-27.72-32.49-48.91-35.51l-45.8-6.53c-8.09-1.15-15.66-4.52-21.93-9.75L615.49,59.3
		c-11.6-9.71-26.31-15.03-41.44-15.03c-5.97,0-11.92,0.83-17.69,2.47l-44.48,12.68c-3.92,1.11-7.96,1.66-12.01,1.66
		c-4.06,0-8.09-0.55-12.01-1.66l-44.48-12.68c-5.76-1.64-11.71-2.47-17.69-2.47c-15.13,0-29.84,5.33-41.42,15.03l-35.51,29.68
		c-6.27,5.23-13.84,8.6-21.93,9.75l-45.8,6.53c-21.21,3.02-39.48,16.3-48.89,35.51l-20.36,41.55c-3.6,7.33-9.15,13.51-16.07,17.85
		l-39.2,24.58c-18.12,11.37-29.42,30.95-30.21,52.35l-1.68,46.23c-0.3,8.16-2.88,16.05-7.43,22.83l-25.8,38.39
		c-11.94,17.78-14.3,40.24-6.32,60.12l17.25,42.91c3.04,7.59,3.92,15.84,2.51,23.89l-7.96,45.57c-3.69,21.1,3.3,42.57,18.68,57.46
		l33.23,32.21c5.86,5.67,10.01,12.87,11.99,20.78l11.28,44.87c5.21,20.78,20.34,37.56,40.45,44.92l43.44,15.89
		c7.66,2.81,14.39,7.7,19.42,14.11l28.55,36.41c12.34,15.73,30.85,24.74,50.82,24.74c1.45,0,2.91-0.05,4.38-0.16l46.17-3.14
		c0.99-0.07,1.98-0.12,2.97-0.12c7.13,0,14.23,1.78,20.5,5.1l40.91,21.65c9.27,4.91,19.72,7.52,30.21,7.52
		c10.49,0,20.94-2.61,30.21-7.52l40.88-21.65c6.3-3.32,13.4-5.1,20.52-5.1c0.99,0,1.98,0.05,2.97,0.12l46.17,3.14
		c1.48,0.12,2.93,0.16,4.38,0.16c19.97,0,38.49-9.02,50.82-24.74l28.55-36.41c5.03-6.41,11.76-11.3,19.42-14.11l43.44-15.89
		c20.11-7.36,35.24-24.14,40.45-44.92l11.28-44.87c1.98-7.91,6.13-15.1,11.99-20.78l33.23-32.21c15.38-14.9,22.37-36.36,18.68-57.46
		l-7.96-45.57c-1.41-8.05-0.53-16.3,2.51-23.89L914.66,444.67z M883.53,513.46l7.96,45.57c3.04,17.32-2.7,34.98-15.33,47.2
		l-33.23,32.21c-7.4,7.17-12.64,16.26-15.15,26.26l-11.28,44.87c-4.29,17.04-16.7,30.83-33.21,36.87l-43.47,15.91
		c-9.69,3.55-18.17,9.71-24.54,17.83l-28.55,36.41c-10.12,12.91-25.32,20.32-41.74,20.32c-1.2,0-2.4-0.05-3.6-0.14l-46.17-3.14
		c-1.25-0.09-2.51-0.14-3.76-0.14c-8.99,0-17.96,2.24-25.9,6.43l-40.91,21.65c-7.61,4.04-16.19,6.18-24.81,6.18
		c-8.62,0-17.2-2.14-24.81-6.18l-40.91-21.65c-7.93-4.2-16.9-6.43-25.9-6.43c-1.25,0-2.49,0.05-3.76,0.14l-46.17,3.14
		c-1.2,0.09-2.4,0.14-3.6,0.14c-16.42,0-31.61-7.4-41.74-20.32l-28.55-36.41c-6.36-8.12-14.85-14.27-24.54-17.83l-43.47-15.91
		c-16.51-6.04-28.92-19.83-33.21-36.87l-11.28-44.87c-2.51-10.01-7.75-19.09-15.15-26.26l-33.23-32.21
		c-12.64-12.22-18.36-29.89-15.33-47.2l7.96-45.57c1.78-10.17,0.67-20.59-3.18-30.16l-17.25-42.94
		c-6.57-16.33-4.64-34.77,5.19-49.37l25.8-38.39c5.74-8.56,8.99-18.54,9.36-28.85l1.71-46.23c0.65-17.57,9.92-33.64,24.81-42.98
		l39.2-24.6c8.74-5.47,15.75-13.26,20.29-22.53l20.36-41.55c7.72-15.8,22.74-26.7,40.15-29.17l45.82-6.53
		c10.19-1.45,19.79-5.72,27.69-12.34l35.49-29.68c9.52-7.96,21.61-12.34,34.04-12.34c4.91,0,9.8,0.67,14.53,2.03l44.48,12.68
		c4.93,1.38,10.05,2.1,15.17,2.1s10.24-0.71,15.17-2.1l44.48-12.68c4.73-1.36,9.62-2.03,14.53-2.03c12.43,0,24.51,4.38,34.04,12.34
		l35.49,29.68c7.91,6.62,17.5,10.88,27.69,12.34l45.82,6.53c17.41,2.47,32.42,13.37,40.17,29.17l20.34,41.55
		c4.54,9.27,11.55,17.06,20.29,22.53l39.2,24.6c14.9,9.34,24.17,25.41,24.81,42.98l1.71,46.23c0.37,10.31,3.62,20.27,9.36,28.85
		l25.8,38.39c9.82,14.6,11.76,33.04,5.19,49.37l-17.25,42.94C882.86,492.87,881.76,503.29,883.53,513.46z"/>
	<g>
		<g>
			<g>
				<path fill="#FFFFFF" d="M500.08,155.95c-0.82,0-1.65-0.29-2.3-0.89c-0.45-0.41-4.39-4.14-4.39-9.79c0-4.67,2.51-7.39,4.35-9.38
					c1.67-1.8,2.47-2.75,2.47-4.56c0-2.59-0.79-3.4-2.24-4.88c-1.69-1.74-4.01-4.11-4.01-9.06c0-4.94,2.45-7.53,4.23-9.42
					c1.45-1.53,2.33-2.46,2.42-4.57c0.06-1.38-0.65-3.64-4.37-6.62c-0.31-0.25-0.56-0.45-0.83-0.78c-1.19-1.49-0.95-3.67,0.55-4.86
					c1.35-1.08,3.27-0.98,4.5,0.16c6.1,4.9,7.19,9.44,7.06,12.41c-0.21,4.69-2.58,7.19-4.31,9.02c-1.51,1.6-2.34,2.47-2.34,4.66
					c0,2.13,0.68,2.83,2.05,4.23c1.77,1.82,4.2,4.31,4.2,9.71c0,4.6-2.49,7.29-4.31,9.26c-1.65,1.78-2.51,2.8-2.51,4.68
					c0,2.63,2.12,4.66,2.14,4.68c1.38,1.3,1.47,3.48,0.18,4.88C501.95,155.57,501.02,155.95,500.08,155.95z"/>
			</g>
		</g>
		<g>
			<g>
				<path fill="#FFFFFF" d="M454.87,155.95c-0.82,0-1.65-0.29-2.3-0.89c-0.45-0.41-4.39-4.14-4.39-9.79c0-4.67,2.51-7.39,4.35-9.38
					c1.67-1.8,2.47-2.75,2.47-4.56c0-2.59-0.79-3.4-2.24-4.88c-1.69-1.74-4.01-4.11-4.01-9.06c0-4.94,2.45-7.53,4.24-9.42l0.52-0.56
					c1.3-1.4,3.48-1.49,4.89-0.2c1.4,1.29,1.49,3.48,0.2,4.89l-0.58,0.62c-1.51,1.6-2.34,2.47-2.34,4.66c0,2.13,0.68,2.83,2.04,4.23
					c1.77,1.82,4.2,4.31,4.2,9.71c0,4.6-2.49,7.29-4.31,9.26c-1.65,1.78-2.51,2.8-2.51,4.68c0,2.63,2.12,4.66,2.14,4.68
					c1.38,1.3,1.47,3.48,0.18,4.88C456.74,155.57,455.8,155.95,454.87,155.95z"/>
			</g>
		</g>
		<g>
			<g>
				<path fill="#FFFFFF" d="M545.22,141.91c-1.05,0-2.09-0.48-2.77-1.38c-1.15-1.53-0.84-3.69,0.68-4.84
					c0.06-0.05,2.34-1.92,2.34-5.33c0-1.53-0.74-2.35-2.29-3.91c-1.78-1.8-4.22-4.27-4.22-8.6c0-7.01,4.46-10.14,4.97-10.47
					c1.59-1.05,3.74-0.61,4.79,0.99c1.03,1.58,0.61,3.69-0.93,4.75c-0.16,0.12-1.91,1.52-1.91,4.73c0,1.42,0.68,2.17,2.22,3.74
					c1.81,1.83,4.29,4.33,4.29,8.78c0,5.54-3.2,9.43-5.09,10.85C546.68,141.69,545.95,141.91,545.22,141.91z"/>
			</g>
		</g>
		<g>
			<path fill="#FFFFFF" d="M575.3,318.56H424.18c-7.29,0-13.94-4.29-16.94-10.94l-14.97-33.15l6.31-2.85l14.97,33.15
				c1.88,4.17,6.06,6.87,10.64,6.87H575.3c4.69,0,8.91-2.79,10.74-7.11l13.93-32.83l6.37,2.7l-13.93,32.83
				C589.5,314.11,582.78,318.56,575.3,318.56z"/>
		</g>
		<g>
			<path fill="#FFFFFF" d="M610.2,278.41c-7.61,0-14.46-4.25-18.39-10.51c-3.93,6.26-10.78,10.51-18.39,10.51
				c-7.61,0-14.46-4.25-18.39-10.51c-3.93,6.27-10.78,10.51-18.39,10.51c-7.61,0-14.46-4.25-18.39-10.51
				c-3.93,6.26-10.78,10.51-18.39,10.51s-14.46-4.25-18.39-10.51c-3.93,6.26-10.78,10.51-18.39,10.51s-14.46-4.25-18.39-10.51
				c-3.93,6.26-10.78,10.51-18.39,10.51s-14.47-4.25-18.39-10.51c-3.93,6.26-10.78,10.51-18.39,10.51
				c-12.05,0-21.85-9.8-21.85-21.85c0-13.46,5.87-18.25,11.56-22.87c2.45-2,4.77-3.89,6.8-6.58c0.6-0.8,1.47-2.19,2.58-3.96
				c9.38-15.04,37.95-60.79,110.68-60.79c70.7,0,96.22,38.29,111.46,61.17c1.07,1.61,2.09,3.13,3.06,4.56
				c1.38,2.01,3.53,3.71,5.8,5.51c5.54,4.38,12.44,9.82,12.44,22.95C632.05,268.61,622.25,278.41,610.2,278.41z M591.81,252.5
				c1.91,0,3.46,1.55,3.46,3.46c0,8.42,6.84,15.53,14.93,15.53c8.23,0,14.93-6.7,14.93-14.93c0-9.78-4.54-13.37-9.8-17.53
				c-2.58-2.04-5.25-4.15-7.22-7.03c-0.99-1.45-2.03-3-3.11-4.63c-14.48-21.73-38.71-58.09-105.7-58.09
				c-68.89,0-94.98,41.8-104.81,57.54c-1.19,1.91-2.13,3.42-2.92,4.46c-2.53,3.36-5.42,5.71-7.96,7.77c-5.23,4.25-9,7.33-9,17.5
				c0,8.23,6.7,14.93,14.93,14.93c8.09,0,14.93-7.11,14.93-15.53c0-1.91,1.55-3.46,3.46-3.46c1.91,0,3.46,1.55,3.46,3.46
				c0,8.42,6.84,15.53,14.93,15.53s14.93-7.11,14.93-15.53c0-1.91,1.55-3.46,3.46-3.46c1.91,0,3.46,1.55,3.46,3.46
				c0,8.42,6.84,15.53,14.93,15.53s14.93-7.11,14.93-15.53c0-1.91,1.55-3.46,3.46-3.46c1.91,0,3.46,1.55,3.46,3.46
				c0,8.42,6.84,15.53,14.93,15.53c8.09,0,14.93-7.11,14.93-15.53c0-1.91,1.55-3.46,3.46-3.46c1.91,0,3.46,1.55,3.46,3.46
				c0,8.42,6.84,15.53,14.93,15.53s14.93-7.11,14.93-15.53c0-1.91,1.55-3.46,3.46-3.46s3.46,1.55,3.46,3.46
				c0,8.42,6.84,15.53,14.93,15.53s14.93-7.11,14.93-15.53C588.35,254.05,589.9,252.5,591.81,252.5z"/>
		</g>
		<g>
			<path fill="#FFFFFF" d="M499.86,211.4c-1.91,0-3.46-1.55-3.46-3.46v-15.33c0-1.91,1.55-3.46,3.46-3.46
				c1.91,0,3.46,1.55,3.46,3.46v15.33C503.32,209.85,501.78,211.4,499.86,211.4z"/>
		</g>
		<g>
			<path fill="#FFFFFF" d="M557.99,215.26c-0.89,0-1.77-0.34-2.45-1.01l-10.65-10.65c-1.35-1.35-1.35-3.54,0-4.89s3.54-1.35,4.89,0
				l10.65,10.65c1.35,1.35,1.35,3.54,0,4.89C559.76,214.93,558.87,215.26,557.99,215.26z"/>
		</g>
		<g>
			<path fill="#FFFFFF" d="M442.55,215.26c-0.89,0-1.77-0.34-2.45-1.01c-1.35-1.35-1.35-3.54,0-4.89l10.65-10.65
				c1.35-1.35,3.54-1.35,4.89,0c1.35,1.35,1.35,3.54,0,4.89L445,214.25C444.32,214.93,443.44,215.26,442.55,215.26z"/>
		</g>
	</g>
	<g>
		<g>
			<path fill="#00B0AD" d="M973.85,747.7C818.42,712.76,658.99,695.04,500,695.04c-158.99,0-318.42,17.72-473.85,52.66L0,753.58
				V394.66l16.74-3.76c158.52-35.64,321.11-53.71,483.26-53.71c162.15,0,324.75,18.07,483.26,53.71l16.74,3.76v358.93L973.85,747.7z
				"/>
			<path fill="#FFFFFF" d="M976.53,735.78C820.22,700.64,659.9,682.82,500,682.82s-320.22,17.82-476.53,52.96l-11.25,2.53V404.44
				l7.2-1.62c157.63-35.44,319.33-53.41,480.58-53.41s322.94,17.97,480.58,53.41l7.2,1.62v333.87L976.53,735.78z"/>
			<path fill="#353535" d="M21.45,726.78c315.42-70.91,641.69-70.91,957.11,0c0-104.99,0-209.98,0-314.96
				c-315.42-70.91-641.69-70.91-957.11,0C21.45,516.8,21.45,621.79,21.45,726.78z"/>
		</g>
		<g>
			<g>
				<path fill="#FFFFFF" d="M197.91,455.35c-10.81,1.57-21.6,3.22-32.38,4.96c0-12.51,0-25.02,0-37.53
					c-11.49,1.86-22.96,3.82-34.42,5.87c0,34.56,0,69.12,0,103.69c11.45-2.06,22.92-4.01,34.42-5.87c0-12.51,0-25.02,0-37.53
					c10.78-1.74,21.57-3.4,32.38-4.96c0,12.51,0,25.02,0,37.53c11.52-1.67,23.06-3.24,34.61-4.71c0-34.56,0-69.13,0-103.69
					c-11.55,1.47-23.09,3.04-34.61,4.71C197.91,430.33,197.91,442.84,197.91,455.35z"/>
				<path fill="#FFFFFF" d="M281.22,471.59c14.57-1.48,29.15-2.81,43.75-3.98c0-8.32,0-16.64,0-24.96
					c-14.6,1.17-29.19,2.5-43.75,3.98c0-4.13,0-8.25,0-12.38c16.67-1.7,33.36-3.19,50.08-4.48c0-9,0-17.99,0-26.99
					c-16.71,1.29-33.41,2.78-50.08,4.48c-0.36,0.04-0.72,0.07-1.08,0.11c-11.23,1.15-22.45,2.39-33.66,3.73
					c0,34.56,0,69.13,0,103.69c11.21-1.34,22.43-2.58,33.66-3.73c0.36-0.04,0.72-0.07,1.08-0.11c17.13-1.74,34.29-3.27,51.47-4.58
					c0-8.77,0-17.54,0-26.31c-17.18,1.31-34.33,2.84-51.47,4.58C281.22,480.29,281.22,475.94,281.22,471.59z"/>
				<path fill="#FFFFFF" d="M545.75,501.15c11.67,0.32,23.33,0.73,34.99,1.24c0-34.56,0-69.13,0-103.69
					c-11.66-0.51-23.32-0.93-34.99-1.24C545.75,432.03,545.75,466.59,545.75,501.15z"/>
				<path fill="#FFFFFF" d="M484.88,396.71c-11.31,0.03-22.61,0.15-33.91,0.36c0,34.56,0,69.13,0,103.69
					c11.66-0.22,23.33-0.34,35-0.36c0-11.11,0-22.23,0-33.34c14.41-0.03,28.81,0.1,43.22,0.37c0-8.32,0-16.64,0-24.96
					c-14.41-0.27-28.81-0.4-43.22-0.37c0-6.14,0-12.27,0-18.41c16.47-0.03,32.94,0.14,49.41,0.5c0-9,0-17.99,0-26.99
					c-16.47-0.36-32.94-0.53-49.41-0.5C485.6,396.71,485.24,396.71,484.88,396.71z"/>
				<path fill="#FFFFFF" d="M631.72,465.9c14.64,1.01,29.26,2.17,43.87,3.49c0-8.32,0-16.64,0-24.96
					c-14.61-1.32-29.24-2.48-43.87-3.49c0-4.13,0-8.25,0-12.38c16.75,1.15,33.48,2.51,50.2,4.07c0-8.99,0-17.99,0-26.99
					c-16.72-1.56-33.45-2.91-50.2-4.07c-0.36-0.03-0.72-0.05-1.08-0.07c-11.29-0.77-22.58-1.45-33.87-2.03c0,34.56,0,69.12,0,103.69
					c11.29,0.58,22.59,1.26,33.87,2.03c0.36,0.02,0.72,0.05,1.08,0.07c17.21,1.18,34.41,2.58,51.59,4.2c0-8.77,0-19.84,0-28.61
					c-17.18-1.61-34.38-3.01-51.59-4.2C631.72,472.3,631.72,470.25,631.72,465.9z"/>
				<path fill="#FFFFFF" d="M729.62,410.66c-11.6-1.35-23.2-2.61-34.82-3.77c0,34.56,0,69.12,0,103.69
					c11.26,1.12,22.51,2.34,33.74,3.64c0.36,0.04,0.72,0.08,1.08,0.13c15.09,1.76,30.15,3.69,45.19,5.79c0-8.77,0-19.84,0-28.61
					c-15.04-2.1-30.11-4.03-45.19-5.79C729.62,459.94,729.62,436.45,729.62,410.66z"/>
				<path fill="#FFFFFF" d="M391.54,434.9c-7.11-11.62-14.22-23.19-21.33-34.73c-12.31,0.71-24.61,1.54-36.9,2.47
					c13.01,21.04,26.03,42.2,39.07,63.49c0,12.53,0,25.07,0,37.6c11.64-0.66,23.29-1.23,34.94-1.69c0-12.36,0-24.72,0-37.08
					c13.15-22.73,26.3-45.33,39.46-67.8c-11.3,0.23-22.6,0.56-33.89,0.98C405.77,410.35,398.65,422.61,391.54,434.9z"/>
				<path fill="#FFFFFF" d="M835.48,425.45c-9.93-1.68-14.83-2.45-14.83-2.45c-11.53-1.86-25.37-3.62-36.93-5.29
					c0,34.56,0,69.13,0,103.69c11.56,1.66,25.4,3.43,36.93,5.29c5.35,0.86,10.71,1.75,16.05,2.66
					c24.92,4.16,54.57-10.77,54.57-40.55C891.27,459.01,867.88,430.93,835.48,425.45z M831.81,501.04
					c-3.72-0.62-7.44-1.23-11.16-1.83c0-16.46,0-32.93,0-49.39c4.29,0.69,9.24,1.51,14.53,2.4c16.81,2.86,22.59,18.86,22.59,28.98
					C857.76,491.34,853.05,504.63,831.81,501.04z"/>
			</g>
			<g>
				<path fill="#FFFFFF" d="M271.84,591.4c7.53-3.98,16-10.09,16-25.95c0-15.83-15.89-24.09-42.58-20.75
					c-10.11,1.27-20.15,2.64-20.15,2.64c-11.65,1.59-23.28,3.29-34.9,5.09c0,34.03,0,68.06,0,102.09c11.62-1.8,23.25-3.5,34.9-5.09
					c0,0.02,9.52-1.38,31.66-4.06c22.15-2.64,35.37-14.65,35.37-33.48C292.15,593.04,271.84,591.37,271.84,591.4z M241.73,569.92
					c7.21-0.92,10.75,1.62,10.75,6.15c0,4.54-2,8.24-11.97,9.52c-5.13,0.66-10.26,1.34-15.39,2.04c0-5.17,0-10.34,0-15.51
					C230.4,571.39,237.55,570.45,241.73,569.92z M240.2,624.31c-5.03,0.65-10.06,1.31-15.08,2c0-5.23,0-10.46,0-15.68
					c4.89-0.68,16.96-2.25,20.61-2.7c4.6-0.58,11.06-0.14,11.06,6.66C256.78,621.39,250.32,623.01,240.2,624.31z"/>
				<path fill="#FFFFFF" d="M339.47,535.15c-15.53,35.23-31.05,70.64-46.55,106.23c11.91-1.2,23.82-2.3,35.75-3.28
					c2.32-6.04,4.64-12.08,6.97-18.11c13.02-1.03,26.06-1.93,39.1-2.7c2.3,5.71,4.6,11.43,6.9,17.15
					c12.06-0.67,24.12-1.23,36.19-1.68c-14.75-33.48-29.49-66.79-44.22-99.94C362.22,533.49,350.84,534.27,339.47,535.15z
					 M345.25,595.03c3.35-8.67,6.69-17.33,10.04-25.99c3.31,8.19,6.62,16.4,9.93,24.61C358.56,594.08,351.91,594.54,345.25,595.03z"
					/>
				<path fill="#FFFFFF" d="M530.55,529.65c-12.8-0.25-25.61-0.37-38.41-0.37c-11.36,12.44-22.72,24.99-34.07,37.63
					c0-12.45,0-24.89,0-37.34c-11.66,0.2-23.33,0.5-34.98,0.91c0,34.03,0,68.06,0,102.09c11.66-0.41,23.32-0.71,34.98-0.91
					c0-8.61,0-17.21,0-25.81c2.54-2.72,5.09-5.44,7.63-8.15c8.61,11.17,17.21,22.39,25.82,33.67c13.53,0,27.06,0.13,40.58,0.4
					c-14.58-19.52-29.16-38.89-43.74-58.09C502.42,558.85,516.49,544.18,530.55,529.65z"/>
				<path fill="#FFFFFF" d="M570.66,593.07c14.66,0.58,29.31,1.32,43.95,2.22c0-8.07,0-16.15,0-24.22
					c-14.64-0.9-29.29-1.65-43.95-2.22c0-4.07,0-8.13,0-12.2c16.72,0.66,33.44,1.53,50.14,2.62c0-8.6,0-17.21,0-25.81
					c-16.7-1.08-33.42-1.95-50.14-2.62c-0.46-0.02-0.93-0.04-1.39-0.05c-11.1-0.43-22.19-0.77-33.3-1.01c0,34.03,0,68.06,0,102.09
					c10.07,0.22,20.13,0.52,30.2,0.9c1.5,0.06,2.99,0.11,4.49,0.17c17.03,0.67,34.06,1.57,51.07,2.68c0-8.75,0-17.51,0-26.26
					c-17.01-1.11-34.04-2-51.07-2.68C570.66,602.13,570.66,597.6,570.66,593.07z"/>
				<path fill="#FFFFFF" d="M730.23,581.61c0-28.59-23.27-40.83-43.93-42.82c-5.76-0.57-11.52-1.11-17.29-1.62
					c-11.37-1.02-22.76-1.93-34.15-2.75c0,34.03,0,68.06,0,102.09c11.39,0.82,22.77,1.74,34.15,2.75c0-8.75,0-17.51,0-26.26
					c2.6,0.23,5.69,0.51,8.96,0.82c5.99,9.32,11.98,18.66,17.97,28.03c12.11,1.25,24.2,2.61,36.29,4.08
					c-6.93-11.25-13.86-22.46-20.8-33.64C721.34,608.01,730.23,598.89,730.23,581.61z M669.02,562.98
					c4.52,0.4,11.05,1.01,14.82,1.38c6.17,0.59,13.11,4.8,13.11,13.51c0,8.72-6.17,11.46-15.12,10.6c-4.27-0.41-8.54-0.8-12.81-1.19
					C669.02,579.19,669.02,571.08,669.02,562.98z"/>
				<path fill="#FFFFFF" d="M840.67,558.75c-10.95-1.96-21.91-3.82-32.89-5.59c-6.94,10.79-13.89,21.62-20.85,32.49
					c-6.75-12.93-13.5-25.82-20.26-38.67c-11.83-1.65-23.67-3.2-35.52-4.63c12.16,22.94,24.31,46,36.44,69.17
					c0,12.56,0,25.12,0,37.68c11.47,1.61,22.92,3.32,34.37,5.13c0-11.45,0-22.91,0-34.36C814.89,599.43,827.79,579.02,840.67,558.75
					z"/>
			</g>
		</g>
	</g>
</g>
<g>
</g>
<g>
</g>
<g>
</g>
<g>
</g>
<g>
</g>
<g>
</g>
</svg>
